<svg xmlns="http://www.w3.org/2000/svg" viewBox="0 0 367 308" enable-background="new 0 0 367 308" fill="#FDFFDF"><path d="m168.49 22.517l-3.75-1.546c-2.761 10.803-7.688 26.955-42.498 44.48l1.301 1.301c0 0 12.696-.306 33.508-16.05 20.813-15.744 17.215-20.13 19.424-27.783"/><path d="m194.41 20.976c2.916 9.779 8.141 19.478 15.673 29.1 7.528 9.622 12.302 20.281 19.951 25.326 0-5.05 5.221-11.487 10.03-12.67-7.333-2.443-15.515-8.162-24.542-17.15-9.03-8.99-15-16.442-17.921-22.355l4.02-1.892-5.44-7.334-3.903 3.903h-26.26l1.537 3.075h26.851"/><path d="m224.94 91.92l-8.06-10.278-5.915 5.796h-56.18l-6.387-2.484c5.755-2.759 11.533-6.801 17.328-12.12 5.796-5.323 9.56-13.148 11.296-23.479h21.764c0 14.273-1.104 22.14-3.312 23.597-2.209 1.46-4.732 2.188-7.571 2.188l-9.422-3.127 4.336 6.174c5.678 0 3.072 1.852 7.689 6.18 4.968 0 8.811-1.991 11.532-5.974 2.72-3.981 4.08-12.873 4.08-26.673l2.01-2.01v-1.538l-7.807-5.914-3.785 4.02h-36.667l1.538 3.076h8.28c-1.736 9.305-5.974 17.289-12.716 23.952-6.742 6.665-15.396 11.967-25.963 15.909l1.302 1.301c4.178-.946 8.437-2.286 12.774-4.02v31.818h-18.333l1.537 3.075h111.07l5.402-1.295-11.33-15.679-5.9 13.898h-6.979v-25.312l4.391-1.077m-57.14 26.389h-15.376v-27.796h15.376v27.796m22.711 0h-15.377v-27.796h15.376v27.796zm22.709 0h-15.494v-27.796h15.494v27.796"/><path d="m159.54 46.27h.327l-.119-.236c-.061.071-.141.159-.208.236"/><path d="m160.67 175.18h7.215c-.868 1.814-2.09 3.43-3.666 4.849v13.957h14.193l7.452-7.216 5.085 5.087-.117 4.968h-26.613l.117 8.871c2.997 0 4.771.197 5.323.592l8.989 4.613c1.97 1.419 3.548 2.838 4.731 4.258v4.968h-4.968l-11.592-11.592h-2.602v34.538h-6.861l-.117-34.538h-4.613v6.03l-21.06 20.816-5.085-.118v-.946l15.967-15.85c1.734-2.68 3.313-5.361 4.732-8.04l6.505-13.603-27.2-.236v-2.603h30.87v-22.24l3.314 3.431m33.591-46.01l11.355 3.667v1.42l-4.02 2.01c.077 11.04.433 20.976 1.064 29.807h24.484l6.03-6.03 7.332 7.569-1.537 1.538h-35.958c1.024 11.987 3.43 23.696 7.216 35.13 5.835-9.383 10.09-18.608 12.773-27.678l11.711 7.688v1.301h-4.02c-4.967 8.989-10.687 17.585-17.15 25.785 4.1 7.256 9.303 13.563 15.613 18.925l6.269-16.441 1.301 1.302c-2.839 10.961-3.252 16.775-1.241 17.446 2.01.668 2.425 2.247 1.241 4.731-1.182 2.482-3.074 3.726-5.678 3.726-2.602 0-6.348-2.644-11.235-7.925-4.891-5.283-8.675-10.368-11.355-15.258-11.277 12.694-23.656 21.05-37.14 25.07l-1.3-1.301c11.985-5.284 23.732-15.219 35.25-29.808-1.736-3.941-3.471-8.673-5.204-14.193-1.736-5.519-3.116-15.02-4.141-28.506h-67.774l-1.538-3.075h30.636v-15.495h-20.818l-1.655-3.193h22.474v-18.215l11.354 3.667v1.42l-4.02 2.01v11.12h11.12l5.796-5.914 7.451 7.451-1.537 1.656h-22.828v15.495h30.989c-.792-10.961-1.225-23.261-1.303-36.904m20.817 7.452l1.42-1.538c5.281 4.02 9.245 7.67 11.888 10.941 2.641 3.273 2.76 5.837.354 7.688-2.407 1.855-4.612.456-6.624-4.199-2.01-4.652-4.357-8.949-7.04-12.892"/><path d="m49.596 249.66h.521c1.532 0 3.256 1.492 2.257 4.118l-12.04 28.491-11.749-28.615c-.84-2.548.79-3.994 2.298-3.994h.522v-.65h-13.482v.656h.496c1.756 0 3.735 1.13 5.074 3.84l16.203 35.809h.621c.135-1.717 2.544-6.761 2.525-6.761l13.576-29.06c1.345-2.7 3.408-3.826 5.162-3.826h.522v-.656h-12.505v.65"/><path d="m85.4 287.28c-10.437-.094-16.938-7.226-16.938-18.577 0-11.561 6.49-18.646 16.885-18.646 8.141 0 14.267 3.235 16.278 11.277l.577.002-1.451-9.271c-4.052-2.463-9.906-3.973-15.375-3.973-13.29 0-21.661 7.832-21.661 20.611 0 12.72 8.362 20.547 21.661 20.612 7.76 0 14.668-3.216 18.08-8.464l.696-8.989-.577.002c-.705 10.756-8.387 15.505-18.17 15.416"/><path d="m132.63 261.42c4-1.145 7.826-4.758 7.853-10.765-.027-7.1-5.482-11.847-15.416-11.847h-14.06l.012.704c.176.005.743.005.885.005 2.472-.006 4.472 1.951 4.547 4.393v39.38c-.07 2.446-2.072 4.408-4.536 4.408-.153-.0001-.72-.0001-.896-.0001l-.012.708h17.261c10.556 0 16.507-5.313 16.5-13.314.007-7.02-4.598-12.545-12.139-13.667m-4.618 24.397h-6.947v-44.733l3.745.005c6.718-.013 10.332 3.671 10.358 10.07-.027 9.111-7.395 10.387-11.716 10.371l.017.666c6.855-.013 15.994 1.758 15.987 12.377.007 7.164-4.173 11.273-11.444 11.239"/><path d="m173.68 248.09c-12.246 0-22.15 8.413-22.15 20.612s9.904 20.611 22.15 20.611c12.246 0 22.15-8.412 22.15-20.611s-9.904-20.612-22.15-20.612m0 39.26c-9.657 0-17.288-7.549-17.288-18.647 0-11.1 7.631-18.647 17.288-18.647 9.656 0 17.289 7.548 17.289 18.647 0 11.1-7.633 18.647-17.289 18.647"/><path d="m235.18 249.67l1.092-.002c1.943 0 3.531 1.45 3.649 3.28v27.22l-34.06-32.1-.025-.034h-.68c0 0 .629 3.72.629 8.2v28.08c-.038 1.9-1.657 3.43-3.654 3.43h-1.093l-.009.656h12.408l-.008-.656h-1.093c-1.997 0-3.618-1.529-3.654-3.43h-.002l-.038-27.39 34.18 32.394h.625c0 0-.622-4.145-.622-8.374v-27.991c.113-1.832 1.702-3.285 3.648-3.285l1.091.0001.001-.656h-12.398l.009.656"/><path d="m275.91 267.51l-13.923-12.888c-2.232-2.068-2.852-4.685-2.852-6.531 0-4.316 3.493-8.147 8.714-8.147 4.414 0 7.988 2.763 7.971 7.295h.683v-7.853-.841h-2.808c-1.881-.41-4.216-.727-6.075-.727-8.08 0-12.451 6-12.451 11.973 0 2.742.974 6.164 3.84 8.779l13.571 12.603c1.771 1.644 2.78 3.834 2.78 6.603 0 5.662-4.322 9.206-9.493 9.493-6.306.351-10.928-4.321-10.216-11.621h-.623c-1.079 3.176-1.347 7.688-.819 9.876 2.785 2.879 8.523 3.871 11.995 3.871 8.147 0 13.266-5.412 13.266-13.249 0-2.862-.727-6.02-3.56-8.636"/><path d="m321.79 283.92l-16.209-35.822h-.623c-.135 1.717-2.545 6.762-2.526 6.762l-13.59 29.1c-1.347 2.676-3.4 3.792-5.147 3.792h-.521v.656h12.508v-.65h-.521c-1.532 0-3.258-1.493-2.255-4.12l3.614-8.555h16.606l3.586 8.735c.859 2.515-.824 3.939-2.32 3.939h-.522v.65h13.484v-.656h-.496c-1.754 0-3.729-1.127-5.068-3.827m-24.439-10.812l7.591-17.964 7.375 17.964h-14.966"/><path d="m331.52 287.74h-.877l-.012.656h14.87l-.012-.656h-.876c-2.412 0-4.378-1.558-4.455-3.503v-31.13c.116-1.917 2.065-3.441 4.452-3.441l.884.0001.005-.656h-14.871l.012.656.876-.0001c2.443 0 4.416 1.588 4.465 3.559h.003v30.963c-.051 1.969-2.02 3.553-4.464 3.553"/></svg>